<svg width="133" height="34" viewBox="0 0 133 34" fill="none" xmlns="http://www.w3.org/2000/svg"> 
<g id="LOGO">
<path d="M96.2396 20.3742L89.0238 18.6611C86.6359 18.1074 84.9574 17.2076 83.9884 15.9617C83.0194 14.6812 82.5349 12.8643 82.5349 10.511C82.5349 6.98095 83.5039 4.38536 85.4419 2.72419C87.38 1.06301 90.3908 0.232422 94.4746 0.232422C96.1703 0.232422 97.6758 0.318941 98.9909 0.49198C100.341 0.630412 101.586 0.855363 102.729 1.16683V6.7733C100.756 6.39262 99.1812 6.15036 98.0046 6.04654C96.8279 5.90811 95.6166 5.83889 94.3707 5.83889C92.2943 5.83889 90.8234 6.16767 89.9582 6.82522C89.093 7.44816 88.6604 8.53831 88.6604 10.0957C88.6604 10.9955 88.8335 11.6876 89.1796 12.1721C89.5602 12.622 90.1832 12.9508 91.0484 13.1585L98.0565 14.8196C99.6831 15.2003 100.894 15.5983 101.69 16.0136C102.486 16.3943 103.144 16.8788 103.663 17.4671C104.182 18.1247 104.563 18.938 104.805 19.907C105.082 20.876 105.22 22.07 105.22 23.4889C105.22 27.1573 104.251 29.7875 102.313 31.3795C100.375 32.9714 97.3643 33.7674 93.2806 33.7674C91.1695 33.7674 89.1277 33.629 87.155 33.3521C85.217 33.0753 83.6942 32.7292 82.5868 32.3139V26.4479C84.0749 26.8978 85.7534 27.2612 87.6222 27.538C89.5257 27.7803 91.4118 27.9014 93.2806 27.9014C95.3225 27.9014 96.7414 27.6245 97.5374 27.0708C98.368 26.4825 98.7832 25.3577 98.7832 23.6965C98.7832 22.6583 98.6102 21.9142 98.2641 21.4643C97.9527 20.9798 97.2778 20.6164 96.2396 20.3742Z" fill="#F5F5F5"/>
<path d="M80.2199 23.8523C80.2199 27.1746 79.2855 29.5799 77.4167 31.068C75.5479 32.5562 72.5889 33.3002 68.5398 33.3002H55.8214V0.751539H68.5398C72.2082 0.751539 74.8038 1.37448 76.3265 2.62036C77.8839 3.86625 78.6626 5.99463 78.6626 9.00551C78.6626 11.0474 78.3511 12.6047 77.7281 13.6776C77.1052 14.7504 75.9632 15.5291 74.302 16.0136C76.2746 16.3597 77.7455 17.1903 78.7145 18.5054C79.7181 19.7859 80.2199 21.5682 80.2199 23.8523ZM72.9004 9.88801C72.9004 8.39987 72.5716 7.37894 71.914 6.82522C71.2911 6.23688 70.1663 5.94272 68.5398 5.94272H62.0508V14.3524H68.5398C70.0971 14.3524 71.2046 14.0063 71.8621 13.3142C72.5543 12.622 72.9004 11.48 72.9004 9.88801ZM74.1982 23.437C74.1982 21.845 73.7656 20.7376 72.9004 20.1146C72.0698 19.4917 70.6162 19.1802 68.5398 19.1802H62.0508V27.9014H68.5398C70.6162 27.9014 72.0698 27.5726 72.9004 26.9151C73.7656 26.2575 74.1982 25.0982 74.1982 23.437Z" fill="#F5F5F5"/>
<path d="M51.8522 16.948C51.8522 22.866 50.6755 27.1573 48.3222 29.8221C46.0034 32.4523 42.2139 33.7674 36.9535 33.7674C31.347 33.7674 27.4536 32.5389 25.2733 30.0817C23.093 27.5899 22.0029 23.212 22.0029 16.948C22.0029 11.0647 23.1796 6.80791 25.5329 4.17772C27.8862 1.54752 31.6931 0.232422 36.9535 0.232422C42.5253 0.232422 46.4014 1.4783 48.5817 3.97007C50.762 6.42723 51.8522 10.7532 51.8522 16.948ZM29.582 25.1501C30.1357 26.1537 30.949 26.8632 32.0219 27.2785C33.0947 27.6938 34.7386 27.9014 36.9535 27.9014C40.3797 27.9014 42.6638 27.14 43.8058 25.6173C44.9479 24.0599 45.5189 21.1702 45.5189 16.948C45.5189 14.9061 45.4151 13.2277 45.2075 11.9126C45.0344 10.5975 44.7229 9.52463 44.273 8.69404C43.7193 7.65581 42.906 6.92904 41.8332 6.51375C40.7603 6.06384 39.1338 5.83889 36.9535 5.83889C33.4927 5.83889 31.1913 6.61757 30.0492 8.17492C28.9072 9.73228 28.3361 12.6566 28.3361 16.948C28.3361 18.9899 28.4399 20.6684 28.6476 21.9835C28.8552 23.2986 29.1667 24.3541 29.582 25.1501Z" fill="#F5F5F5"/>
<path d="M12.0435 20.8933V0.751539H18.2729V21.2567C18.2729 25.6865 17.3039 28.8877 15.3659 30.8604C13.4625 32.7984 10.3131 33.7674 5.91794 33.7674C4.67206 33.7674 3.5473 33.7155 2.54368 33.6117C1.57466 33.5079 0.726765 33.3521 0 33.1445V27.4342C0.726765 27.6072 1.50544 27.7284 2.33603 27.7976C3.16662 27.8668 4.11833 27.9014 5.19118 27.9014C7.89059 27.9014 9.7075 27.4169 10.6419 26.4479C11.5763 25.4442 12.0435 23.5927 12.0435 20.8933Z" fill="#F5F5F5"/>
<path d="M128.107 33.3002H106.843V27.6548H126.178V19.1867H109.666V13.7295H125.238V6.0141H107.313V0.36869H127.166L132.059 5.26138V13.8706L129.189 16.0817L133 19.0926V28.4075L128.107 33.3002Z" fill="#dc4f14"/>
</g>
</svg>
