<svg width="74" height="74" viewBox="0 0 74 74" fill="none" xmlns="http://www.w3.org/2000/svg">
<path d="M62.4375 56.875V22.1875" stroke="white" stroke-width="4.625" stroke-miterlimit="10" stroke-linecap="round" stroke-linejoin="round"/>
<path d="M11.5625 22.1875V56.875" stroke="white" stroke-width="4.625" stroke-miterlimit="10" stroke-linecap="round" stroke-linejoin="round"/>
<path d="M36.9999 6V15.25" stroke="#C291FF" stroke-width="4.625" stroke-miterlimit="10" stroke-linecap="round" stroke-linejoin="round"/>
<path d="M50.8748 6C50.8748 6 51.8854 12.4889 52.0311 14.6719C52.3062 18.8136 48.6664 22.1875 44.5154 22.1875C40.3645 22.1875 36.9998 18.8228 36.9998 14.6719C36.9998 18.8228 33.6351 22.1875 29.4842 22.1875C25.3332 22.1875 21.6934 18.8136 21.9686 14.6719C22.1142 12.4889 23.1248 6 23.1248 6" stroke="#C291FF" stroke-width="4.625" stroke-miterlimit="10" stroke-linecap="round" stroke-linejoin="round"/>
<path d="M52.0309 14.6719C52.0309 18.8228 55.3956 22.1875 59.5465 22.1875C63.6975 22.1875 67.601 18.7881 67.0622 14.6719C66.7708 12.4472 62.4372 6 62.4372 6H11.5622C11.5622 6 7.22853 12.4472 6.93715 14.6719C6.39834 18.7881 10.3018 22.1875 14.4528 22.1875C18.6037 22.1875 21.9684 18.8228 21.9684 14.6719" stroke="#C291FF" stroke-width="4.625" stroke-miterlimit="10" stroke-linecap="round" stroke-linejoin="round"/>
<path d="M12.022 56.8618L62.3731 56.8618" stroke="white" stroke-width="4.625" stroke-miterlimit="10" stroke-linecap="round" stroke-linejoin="round"/>
<path d="M53.1874 29.125H20.8124V47.625H53.1874V29.125Z" stroke="white" stroke-width="4.625" stroke-miterlimit="10" stroke-linecap="round" stroke-linejoin="round"/>
</svg>
